{"title":"Perfect Blue (1997 Movie) 720p [Cursator]","uid":7988144,"size":371631043,"categoryP":"video","categoryS":"movies","magnet":"?xt=urn:btih:3edcf4b00282af0ea761a457f15cab768512abc9&amp;dn=Perfect+Blue+%281997+Movie%29+720p+%5BCursator%5D&amp;tr=udp%3A%2F%2Ftracker.openbittorrent.com%3A80&amp;tr=udp%3A%2F%2Fopen.demonii.com%3A1337&amp;tr=udp%3A%2F%2Ftracker.coppersurfer.tk%3A6969&amp;tr=udp%3A%2F%2Fexodus.desync.com%3A6969","seeders":0,"leechers":3,"uploader":"Cursator","files":-1,"time":1357333613,"description":"Perfect Blue the Movie! at 720p Video Quality (But I personally think that the resolution is not so well...well I didn't expect much from a 1997 movie :)\n\nPlease seed after you download.\n\n\n--------------------------------------------------------------------------------\n\nCover\n--------------------------------------------------------------------------------\n         &lt;a href=&quot;\nhttp://img339.imageshack.us/img339/8601/perfectbluecursator.jpg&quot; rel=&quot;nofollow&quot; target=&quot;_NEW&quot;&gt;\nhttp://img339.imageshack.us/img339/8601/perfectbluecursator.jpg&lt;/a&gt;\n--------------------------------------------------------------------------------\n\nInfo\n---------------------------------------------------------------------------------\n\nTorrent Statistics\n &lt;a href=&quot;\nhttp://torrent-stats.info/a457/1524be34d.png&quot; rel=&quot;nofollow&quot; target=&quot;_NEW&quot;&gt;\nhttp://torrent-stats.info/a457/1524be34d.png&lt;/a&gt;\n----------------------------------------------------------------------------------\n\nGeneral\n--------\n\nFormat                                   : Flash Video\nFile size                                : 350 MiB\nDuration                                 : 1h 21mn\nOverall bit rate                         : 598 Kbps\nTagged date                              : UTC 2012-02-24 14:37:08\n\n\nVideo\n---------------------------------------\n\nFormat                                   : AVC\nFormat/Info                              : Advanced Video Codec\nFormat profile                           : &lt;a class=&quot;__cf_email__&quot; href=&quot;/cdn-cgi/l/email-protection&quot; data-cfemail=&quot;7d35141a153d3149534c&quot;&gt;[email&amp;#160;protected]&lt;/a&gt;&lt;script cf-hash='f9e31' type=&quot;text/javascript&quot;&gt;\n/* &lt;![CDATA[ */!function(){try{var t=&quot;currentScript&quot;in document?document.currentScript:function(){for(var t=document.getElementsByTagName(&quot;script&quot;),e=t.length;e--;)if(t[e].getAttribute(&quot;cf-hash&quot;))return t[e]}();if(t&amp;&amp;t.previousSibling){var e,r,n,i,c=t.previousSibling,a=c.getAttribute(&quot;data-cfemail&quot;);if(a){for(e=&quot;&quot;,r=parseInt(a.substr(0,2),16),n=2;a.length-n;n+=2)i=parseInt(a.substr(n,2),16)^r,e+=String.fromCharCode(i);e=document.createTextNode(e),c.parentNode.replaceChild(e,c)}}}catch(u){}}();/* ]]&gt; */&lt;/script&gt;\nFormat settings, CABAC                   : Yes\nFormat settings, ReFrames                : 4 frames\nCodec ID                                 : 7\nDuration                                 : 1h 21mn\nBit rate                                 : 510 Kbps\nWidth                                    : 1 280 pixels\nHeight                                   : 688 pixels\nDisplay aspect ratio                     : 1.85:1\nFrame rate mode                          : Constant\nFrame rate                               : 23.000 fps\nColor space                              : YUV\nChroma subsampling                       : 4:2:0\nBit depth                                : 8 bits\nScan type                                : Progressive\nBits/(Pixel*Frame)                       : 0.025\nStream size                              : 299 MiB (86%)\nWriting library                          : x264 core 115\n\nAudio\n----------------------------------\n\nFormat                                   : AAC\nFormat/Info                              : Advanced Audio Codec\nFormat profile                           : LC\nCodec ID                                 : 10\nDuration                                 : 1h 21mn\nBit rate                                 : 80.3 Kbps\nChannel(s)                               : 2 channels\nChannel positions                        : Front: L R\nSampling rate                            : 44.1 KHz\nCompression mode                         : Lossy\nDelay relative to video                  : 84ms\nStream size                              : 49.2 MiB (14%)\n\n\n----------------------------------------------------------------------------------\n\nScreenshots\n----------------------------------------------------------------------------------\n               &lt;a href=&quot;\nhttp://img338.imageshack.us/img338/4562/perfectblue01.png&quot; rel=&quot;nofollow&quot; target=&quot;_NEW&quot;&gt;\nhttp://img338.imageshack.us/img338/4562/perfectblue01.png&lt;/a&gt;\n\n &lt;a href=&quot;\nhttp://img818.imageshack.us/img818/7802/perfectblue02.png&quot; rel=&quot;nofollow&quot; target=&quot;_NEW&quot;&gt;\nhttp://img818.imageshack.us/img818/7802/perfectblue02.png&lt;/a&gt;\n\n &lt;a href=&quot;\nhttp://img90.imageshack.us/img90/4133/perfectblue03.png&quot; rel=&quot;nofollow&quot; target=&quot;_NEW&quot;&gt;\nhttp://img90.imageshack.us/img90/4133/perfectblue03.png&lt;/a&gt;\n\n &lt;a href=&quot;\nhttp://img837.imageshack.us/img837/1036/perfectblue04.png&quot; rel=&quot;nofollow&quot; target=&quot;_NEW&quot;&gt;\nhttp://img837.imageshack.us/img837/1036/perfectblue04.png&lt;/a&gt;\n\n &lt;a href=&quot;\nhttp://img832.imageshack.us/img832/6065/perfectblue05.png&quot; rel=&quot;nofollow&quot; target=&quot;_NEW&quot;&gt;\nhttp://img832.imageshack.us/img832/6065/perfectblue05.png&lt;/a&gt;\n\n\n \n----------------------------------------------------------------------------------\n\nStory\n----------------------------------------------------------------------------------\n\nA retired pop singer turned actress's sense of reality is shaken when she is stalked by an obsessed fan and seemingly a ghost of her past.\n----------------------------------------------------------------------------------\n\nThank you for downloading. \n\nEnjoy Watching :)\t\t\n\n----------------------------------------------------------------------------------\n\nFacebook and Email\n------------------\n\nFacebook/Cursator (Add .com)\n\n&lt;a class=&quot;__cf_email__&quot; href=&quot;/cdn-cgi/l/email-protection&quot; data-cfemail=&quot;eba89e99988a9f8499ab92868a8287c5888486&quot;&gt;[email&amp;#160;protected]&lt;/a&gt;&lt;script cf-hash='f9e31' type=&quot;text/javascript&quot;&gt;\n/* &lt;![CDATA[ */!function(){try{var t=&quot;currentScript&quot;in document?document.currentScript:function(){for(var t=document.getElementsByTagName(&quot;script&quot;),e=t.length;e--;)if(t[e].getAttribute(&quot;cf-hash&quot;))return t[e]}();if(t&amp;&amp;t.previousSibling){var e,r,n,i,c=t.previousSibling,a=c.getAttribute(&quot;data-cfemail&quot;);if(a){for(e=&quot;&quot;,r=parseInt(a.substr(0,2),16),n=2;a.length-n;n+=2)i=parseInt(a.substr(n,2),16)^r,e+=String.fromCharCode(i);e=document.createTextNode(e),c.parentNode.replaceChild(e,c)}}}catch(u){}}();/* ]]&gt; */&lt;/script&gt; \n\nThank you :)\t\t\n\t\t\t\n\t\t\t\t\t\n\t\t\t\t\t\t\t\t\n\t\t\t\t\t\t\t\t\n\t\t","torrent":{"xt":"urn:btih:3edcf4b00282af0ea761a457f15cab768512abc9","amp;dn":"Perfect+Blue+%281997+Movie%29+720p+%5BCursator%5D","amp;tr":["udp%3A%2F%2Ftracker.openbittorrent.com%3A80","udp%3A%2F%2Fopen.demonii.com%3A1337","udp%3A%2F%2Ftracker.coppersurfer.tk%3A6969","udp%3A%2F%2Fexodus.desync.com%3A6969"],"infoHash":"3edcf4b00282af0ea761a457f15cab768512abc9","infoHashBuffer":{"type":"Buffer","data":[62,220,244,176,2,130,175,14,167,97,164,87,241,92,171,118,133,18,171,201]},"announce":[],"urlList":[]}}